<svg width="512" height="512" style="width: 512px; height: 512px; display: block;" viewBox="0 0 512 512" fill="none"
     xmlns="http://www.w3.org/2000/svg">
    <g clip-path="url(#clip0_712_42)">
        <rect width="512" height="512" fill="white"/>
        <path d="M0 -2H1544V720H0V-2Z" fill="#0A0A25"/>
        <path d="M409.335 47.273C397.622 47.3479 386.267 51.3125 377.053 58.5437C367.839 65.7749 361.289 75.8628 358.432 87.2219H304.308C301.164 74.7227 293.561 63.8035 282.928 56.5197C272.295 49.2358 259.366 46.0897 246.575 47.6735C233.785 49.2572 222.014 55.4617 213.479 65.1189C204.943 74.7762 200.232 87.2201 200.232 100.109C200.232 112.997 204.943 125.441 213.479 135.098C222.014 144.756 233.785 150.96 246.575 152.544C259.366 154.128 272.295 150.981 282.928 143.698C293.561 136.414 301.164 125.495 304.308 112.995H358.432C360.85 122.606 365.921 131.344 373.068 138.21C380.215 145.075 389.149 149.793 398.849 151.823C408.549 153.853 418.625 153.114 427.925 149.69C437.225 146.266 445.375 140.296 451.444 132.46C457.512 124.625 461.255 115.241 462.244 105.38C463.233 95.5191 461.428 85.5788 457.037 76.6946C452.645 67.8103 445.843 60.3402 437.408 55.1377C428.973 49.9351 419.245 47.2098 409.335 47.273ZM253.405 126.526C248.053 126.526 242.821 124.939 238.37 121.966C233.92 118.992 230.451 114.765 228.403 109.82C226.355 104.876 225.819 99.4342 226.863 94.1847C227.907 88.9352 230.485 84.1132 234.27 80.3285C238.054 76.5438 242.876 73.9663 248.126 72.9221C253.375 71.8779 258.817 72.4139 263.762 74.4621C268.707 76.5104 272.933 79.979 275.907 84.4294C278.88 88.8797 280.467 94.1119 280.467 99.4643C280.467 103.018 279.767 106.537 278.407 109.82C277.047 113.104 275.054 116.087 272.541 118.6C270.028 121.113 267.045 123.106 263.762 124.466C260.478 125.826 256.959 126.526 253.405 126.526ZM409.335 126.526C403.982 126.526 398.75 124.939 394.3 121.966C389.849 118.992 386.381 114.765 384.333 109.82C382.284 104.876 381.748 99.4342 382.793 94.1847C383.837 88.9352 386.414 84.1132 390.199 80.3285C393.984 76.5438 398.806 73.9663 404.055 72.9221C409.305 71.8779 414.746 72.4139 419.691 74.4621C424.636 76.5104 428.862 79.979 431.836 84.4294C434.81 88.8797 436.397 94.1119 436.397 99.4643C436.397 106.642 433.546 113.525 428.47 118.6C423.395 123.675 416.512 126.526 409.335 126.526Z"
              fill="#F9F9F9"/>
        <path d="M97.4762 359.776C87.0263 359.776 76.8111 362.875 68.1223 368.68C59.4336 374.486 52.6615 382.738 48.6625 392.392C44.6635 402.047 43.6172 412.67 45.6559 422.919C47.6945 433.168 52.7266 442.583 60.1158 449.972C67.505 457.361 76.9194 462.393 87.1685 464.432C97.4176 466.47 108.041 465.424 117.695 461.425C127.35 457.426 135.602 450.654 141.407 441.965C147.213 433.277 150.312 423.061 150.312 412.611C150.312 398.599 144.745 385.16 134.837 375.251C124.928 365.342 111.489 359.776 97.4762 359.776ZM97.4762 439.029C92.1238 439.029 86.8916 437.442 82.4413 434.468C77.9909 431.495 74.5223 427.268 72.4741 422.323C70.4258 417.378 69.8899 411.937 70.9341 406.688C71.9783 401.438 74.5557 396.616 78.3404 392.831C82.1251 389.047 86.9471 386.469 92.1966 385.425C97.4462 384.381 102.887 384.917 107.832 386.965C112.777 389.013 117.004 392.482 119.978 396.932C122.951 401.383 124.538 406.615 124.538 411.967C124.538 419.144 121.687 426.028 116.612 431.103C111.537 436.178 104.654 439.029 97.4762 439.029Z"
              fill="#F9F9F9"/>
        <path d="M409.34 200.625C398.624 200.396 388.097 203.472 379.191 209.435C370.284 215.398 363.429 223.959 359.558 233.954C355.686 243.949 354.986 254.894 357.553 265.3C360.119 275.707 365.827 285.071 373.902 292.121L290.782 375.884C284.14 368.786 275.667 363.658 266.298 361.065V304.363C278.797 301.22 289.716 293.616 297 282.983C304.284 272.35 307.43 259.421 305.846 246.631C304.262 233.84 298.058 222.069 288.401 213.534C278.743 204.999 266.299 200.288 253.411 200.288C240.522 200.288 228.078 204.999 218.421 213.534C208.764 222.069 202.56 233.84 200.976 246.631C199.392 259.421 202.538 272.35 209.822 282.983C217.106 293.616 228.025 301.22 240.524 304.363V361.065C230.34 363.61 221.145 369.131 214.112 376.924C207.079 384.717 202.527 394.428 201.036 404.819C199.545 415.21 201.183 425.809 205.741 435.265C210.299 444.721 217.57 452.605 226.627 457.911C235.685 463.218 246.117 465.706 256.595 465.058C267.072 464.411 277.119 460.657 285.454 454.276C293.789 447.895 300.034 439.175 303.393 429.23C306.752 419.285 307.073 408.564 304.313 398.436L398.386 305.007L409.34 306.296C416.725 307.115 424.199 306.368 431.276 304.102C438.352 301.837 444.871 298.105 450.407 293.149C455.942 288.193 460.371 282.126 463.403 275.342C466.435 268.559 468.002 261.213 468.002 253.783C468.002 246.353 466.435 239.006 463.403 232.223C460.371 225.44 455.942 219.372 450.407 214.416C444.871 209.461 438.352 205.728 431.276 203.463C424.199 201.198 416.725 200.45 409.34 201.269V200.625ZM226.349 253.461C226.349 248.108 227.936 242.876 230.91 238.426C233.883 233.975 238.11 230.507 243.055 228.458C248 226.41 253.441 225.874 258.69 226.918C263.94 227.963 268.762 230.54 272.547 234.325C276.331 238.109 278.909 242.931 279.953 248.181C280.997 253.43 280.461 258.872 278.413 263.817C276.365 268.762 272.896 272.988 268.446 275.962C263.995 278.935 258.763 280.523 253.411 280.523C246.234 280.523 239.35 277.671 234.275 272.596C229.2 267.521 226.349 260.638 226.349 253.461ZM253.411 439.029C248.059 439.029 242.826 437.442 238.376 434.468C233.926 431.495 230.457 427.268 228.409 422.323C226.36 417.378 225.825 411.937 226.869 406.688C227.913 401.438 230.49 396.616 234.275 392.831C238.06 389.047 242.882 386.469 248.131 385.425C253.381 384.381 258.822 384.917 263.767 386.965C268.712 389.013 272.939 392.482 275.912 396.932C278.886 401.383 280.473 406.615 280.473 411.967C280.473 415.521 279.773 419.04 278.413 422.323C277.053 425.607 275.06 428.59 272.547 431.103C270.034 433.616 267.05 435.609 263.767 436.969C260.484 438.329 256.965 439.029 253.411 439.029ZM409.34 280.523C403.988 280.523 398.756 278.935 394.305 275.962C389.855 272.988 386.386 268.762 384.338 263.817C382.29 258.872 381.754 253.43 382.798 248.181C383.842 242.931 386.42 238.109 390.204 234.325C393.989 230.54 398.811 227.963 404.061 226.918C409.31 225.874 414.751 226.41 419.696 228.458C424.641 230.507 428.868 233.975 431.841 238.426C434.815 242.876 436.402 248.108 436.402 253.461C436.402 260.638 433.551 267.521 428.476 272.596C423.401 277.671 416.517 280.523 409.34 280.523Z"
              fill="#F9F9F9"/>
        <path d="M409.339 359.776C398.89 359.776 388.674 362.875 379.986 368.68C371.297 374.486 364.525 382.738 360.526 392.392C356.527 402.047 355.48 412.67 357.519 422.919C359.558 433.168 364.59 442.583 371.979 449.972C379.368 457.361 388.783 462.393 399.032 464.432C409.281 466.47 419.904 465.424 429.559 461.425C439.213 457.426 447.465 450.654 453.271 441.965C459.076 433.277 462.175 423.061 462.175 412.611C462.175 398.599 456.608 385.16 446.7 375.251C436.791 365.342 423.352 359.776 409.339 359.776ZM409.339 439.029C403.987 439.029 398.755 437.442 394.305 434.468C389.854 431.495 386.386 427.268 384.337 422.323C382.289 417.378 381.753 411.937 382.797 406.688C383.842 401.438 386.419 396.616 390.204 392.831C393.988 389.047 398.81 386.469 404.06 385.425C409.309 384.381 414.751 384.917 419.696 386.965C424.641 389.013 428.867 392.482 431.841 396.932C434.814 401.383 436.402 406.615 436.402 411.967C436.402 419.144 433.55 426.028 428.475 431.103C423.4 436.178 416.517 439.029 409.339 439.029Z"
              fill="#F9F9F9"/>
        <path d="M149.67 100.109C149.722 90.0887 146.924 80.2607 141.601 71.771C136.279 63.2814 128.652 56.4802 119.611 52.161C110.57 47.8417 100.487 46.1824 90.5382 47.3767C80.5896 48.5709 71.1857 52.5695 63.4236 58.9059C55.6615 65.2424 49.8612 73.6553 46.6994 83.1634C43.5376 92.6715 43.1447 102.883 45.5664 112.606C47.9882 122.329 53.1248 131.162 60.3771 138.077C67.6293 144.991 76.6981 149.7 86.5255 151.655V207.068C73.8871 209.587 62.6051 216.639 54.8026 226.895C47.0002 237.152 43.2153 249.907 44.1603 262.759C45.1052 275.611 50.7149 287.675 59.9335 296.68C69.1522 305.685 81.3442 311.011 94.2151 311.654C107.086 312.298 119.748 308.215 129.819 300.174C139.89 292.134 146.675 280.69 148.898 267.996C151.12 255.302 148.626 242.233 141.886 231.25C135.145 220.266 124.623 212.124 112.299 208.357V150.367C123.073 147.069 132.511 140.414 139.234 131.372C145.957 122.33 149.614 111.376 149.67 100.109ZM70.4171 100.109C70.4171 94.7562 72.0042 89.524 74.9779 85.0737C77.9515 80.6233 82.178 77.1547 87.123 75.1064C92.0679 73.0582 97.5092 72.5222 102.759 73.5664C108.008 74.6106 112.83 77.188 116.615 80.9728C120.4 84.7575 122.977 89.5795 124.021 94.829C125.066 100.079 124.53 105.52 122.481 110.465C120.433 115.41 116.964 119.636 112.514 122.61C108.064 125.584 102.832 127.171 97.4792 127.171C90.3019 127.171 83.4185 124.319 78.3434 119.244C73.2683 114.169 70.4171 107.286 70.4171 100.109ZM123.897 258.615C123.897 263.968 122.31 269.2 119.336 273.65C116.363 278.1 112.136 281.569 107.191 283.617C102.246 285.666 96.8048 286.202 91.5553 285.157C86.3058 284.113 81.4838 281.536 77.6991 277.751C73.9144 273.966 71.3369 269.144 70.2927 263.895C69.2485 258.645 69.7845 253.204 71.8327 248.259C73.881 243.314 77.3496 239.088 81.8 236.114C86.2503 233.14 91.4825 231.553 96.8349 231.553C104.012 231.553 110.896 234.404 115.971 239.479C121.046 244.555 123.897 251.438 123.897 258.615Z"
              fill="#F9F9F9"/>
    </g>
    <defs>
        <clipPath id="clip0_712_42">
            <rect width="512" height="512" fill="white"/>
        </clipPath>
    </defs>
</svg>
